<svg xmlns="http://www.w3.org/2000/svg" width="30" height="28"   preserveAspectRatio="xMidYMid meet">
  <path fill="#12FFF7" fill-rule="evenodd" d="M0 4.828C0 2.16 2.172 0 4.851 0h18.436c2.679 0 4.85 2.161 4.85 4.828V20.43c0 2.758 -3.507 3.955 -5.208 1.778l-5.318 -6.809v8.256c0 2.4 -1.955 4.345 -4.367 4.345H4.851C2.172 28 0 25.839 0 23.172zm4.851 -0.966a0.97 0.97 0 0 0 -0.97 0.966v18.344c0 0.534 0.435 0.966 0.97 0.966h8.539c0.268 0 0.34 -0.216 0.34 -0.483v-11.07c0 -2.76 3.507 -3.956 5.208 -1.779l5.319 6.809V4.828c0 -0.534 0.05 -0.966 -0.485 -0.966z"/>
</svg>